<?xml version="1.0"?>
<svg xmlns="http://www.w3.org/2000/svg" viewBox="0 0 64 64" width="512" height="512"><g id="Gear-2" data-name="Gear"><circle cx="32" cy="32" r="6"/><path d="M25.155,42.6a1,1,0,0,1,1.081-.077,11.939,11.939,0,0,0,2.4.987,1,1,0,0,1,.71.818L29.867,48h4.266l.524-3.67a1,1,0,0,1,.71-.818,11.939,11.939,0,0,0,2.4-.987,1,1,0,0,1,1.081.077l2.961,2.22,3.016-3.016L42.6,38.845a1,1,0,0,1-.077-1.081,11.939,11.939,0,0,0,.987-2.4,1,1,0,0,1,.818-.71L48,34.133V29.867l-3.67-.524a1,1,0,0,1-.818-.71,11.939,11.939,0,0,0-.987-2.4,1,1,0,0,1,.077-1.081l2.22-2.961-3.016-3.016L38.845,21.4a1,1,0,0,1-1.081.077,11.939,11.939,0,0,0-2.4-.987,1,1,0,0,1-.71-.818L34.133,16H29.867l-.524,3.67a1,1,0,0,1-.71.818,11.939,11.939,0,0,0-2.4.987,1,1,0,0,1-1.081-.077l-2.961-2.22-3.016,3.016,2.22,2.961a1,1,0,0,1,.077,1.081,11.939,11.939,0,0,0-.987,2.4,1,1,0,0,1-.818.71L16,29.867v4.266l3.67.524a1,1,0,0,1,.818.71,11.939,11.939,0,0,0,.987,2.4,1,1,0,0,1-.077,1.081l-2.22,2.961,3.016,3.016ZM44,31h2v2H44ZM20,33H18V31h2ZM33,46H31V44h2Zm9.606-4.808-1.414,1.414-1.414-1.414,1.414-1.414Zm-1.414-19.8,1.414,1.414-1.414,1.414-1.414-1.414ZM31,18h2v2H31Zm1,6a8,8,0,1,1-8,8A8.009,8.009,0,0,1,32,24ZM21.394,22.808l1.414-1.414,1.414,1.414-1.414,1.414Zm1.414,16.97,1.414,1.414-1.414,1.414-1.414-1.414Z"/><rect x="31" y="10" width="2" height="2"/><rect x="16.151" y="16.151" width="2" height="2" transform="translate(-7.104 17.151) rotate(-45)"/><rect x="10" y="31" width="2" height="2"/><rect x="16.151" y="45.849" width="2" height="2" transform="translate(-28.104 25.849) rotate(-45)"/><rect x="31" y="52" width="2" height="2"/><rect x="45.849" y="45.849" width="2" height="2" transform="translate(-19.406 46.849) rotate(-45)"/><rect x="52" y="31" width="2" height="2"/><rect x="45.849" y="16.151" width="2" height="2" transform="translate(1.594 38.151) rotate(-45)"/><path d="M34.311,4.1l1.4-1.4L34.293,1.293l-3,3a1,1,0,0,0,0,1.414l3,3,1.414-1.414L34.54,6.126a26,26,0,0,1,2.225,51.438l.364,1.967A28,28,0,0,0,34.311,4.1Z"/><path d="M29.707,55.293l-1.414,1.414,1.167,1.167A26,26,0,0,1,28.154,6.282L27.861,4.3A28,28,0,0,0,29.689,59.9l-1.4,1.4,1.414,1.414,3-3a1,1,0,0,0,0-1.414Z"/></g></svg>
