<svg enable-background="new 0 0 24 24" height="512" viewBox="0 0 24 24" width="512" xmlns="http://www.w3.org/2000/svg"><path d="m13.441 14h-5.941c-1.379 0-2.5-1.122-2.5-2.5v-7c0-.276.224-.5.5-.5h3.5c1.077 0 2.03.687 2.372 1.709l2.544 7.632c.051.152.025.32-.069.451s-.244.208-.406.208zm-7.441-9v6.5c0 .827.673 1.5 1.5 1.5h5.248l-2.325-6.974c-.204-.614-.777-1.026-1.423-1.026z"/><path d="m15.5 19h-2c-.276 0-.5-.224-.5-.5s.224-.5.5-.5h1.5v-4h-7.5c-1.379 0-2.5-1.122-2.5-2.5v-.5h-2.5c-.827 0-1.5.673-1.5 1.5v5c0 .276.225.5.5.5h1c.276 0 .5.224.5.5s-.224.5-.5.5h-1c-.827 0-1.5-.673-1.5-1.5v-5c0-1.378 1.121-2.5 2.5-2.5h3c.276 0 .5.224.5.5v1c0 .827.673 1.5 1.5 1.5h8c.276 0 .5.224.5.5v5c0 .276-.224.5-.5.5z"/><path d="m9.5 19h-3c-.276 0-.5-.224-.5-.5s.224-.5.5-.5h3c.276 0 .5.224.5.5s-.224.5-.5.5z"/><path d="m23.5 19h-8c-.276 0-.5-.224-.5-.5v-15c0-.276.224-.5.5-.5s.5.224.5.5v14.5h7.5c.276 0 .5.224.5.5s-.224.5-.5.5z"/><path d="m4.5 21c-1.379 0-2.5-1.122-2.5-2.5s1.121-2.5 2.5-2.5 2.5 1.122 2.5 2.5-1.121 2.5-2.5 2.5zm0-4c-.827 0-1.5.673-1.5 1.5s.673 1.5 1.5 1.5 1.5-.673 1.5-1.5-.673-1.5-1.5-1.5z"/><path d="m11.5 21c-1.379 0-2.5-1.122-2.5-2.5s1.121-2.5 2.5-2.5 2.5 1.122 2.5 2.5-1.121 2.5-2.5 2.5zm0-4c-.827 0-1.5.673-1.5 1.5s.673 1.5 1.5 1.5 1.5-.673 1.5-1.5-.673-1.5-1.5-1.5z"/><path d="m23.5 19h-6c-.276 0-.5-.224-.5-.5v-6c0-.276.224-.5.5-.5h6c.276 0 .5.224.5.5v6c0 .276-.224.5-.5.5zm-5.5-1h5v-5h-5z"/><path d="m23.5 13h-6c-.276 0-.5-.224-.5-.5v-6c0-.276.224-.5.5-.5h6c.276 0 .5.224.5.5v6c0 .276-.224.5-.5.5zm-5.5-1h5v-5h-5z"/><path d="m20.5 15.5c-.276 0-.5-.224-.5-.5v-2.5c0-.276.224-.5.5-.5s.5.224.5.5v2.5c0 .276-.224.5-.5.5z"/><path d="m20.5 9.5c-.276 0-.5-.224-.5-.5v-2.5c0-.276.224-.5.5-.5s.5.224.5.5v2.5c0 .276-.224.5-.5.5z"/></svg>