<svg id="Capa_1" enable-background="new 0 0 512 512" height="512" viewBox="0 0 512 512" width="512"
     xmlns="http://www.w3.org/2000/svg">
  <g>
    <path
      d="m76 384c-5.523 0-10 4.477-10 10v78c0 5.523 4.477 10 10 10h51.266c4.452 17.233 20.13 30 38.734 30s34.282-12.767 38.734-30h102.532c4.452 17.233 20.13 30 38.734 30s34.282-12.767 38.734-30h51.266c5.523 0 10-4.477 10-10v-78c0-5.523-4.477-10-10-10h-28.03l-125.61-51.5 127.433-52.248c3.74-1.533 6.189-5.167 6.207-9.21.017-4.042-2.401-7.697-6.128-9.262l-128.048-53.78 126.19-53h27.986c5.523 0 10-4.477 10-10v-135c0-5.523-4.477-10-10-10h-135c-5.523 0-10 4.477-10 10s4.477 10 10 10h125v115c-18.764 0-322.741 0-340 0v-115h125c5.523 0 10-4.477 10-10s-4.477-10-10-10h-135c-5.523 0-10 4.477-10 10v135c0 5.523 4.477 10 10 10h27.986l126.19 53-128.048 53.78c-3.727 1.565-6.145 5.22-6.128 9.262s2.466 7.677 6.207 9.21l127.433 52.248-125.61 51.5zm90 108c-11.028 0-20-8.972-20-20s8.972-20 20-20 20 8.972 20 20-8.972 20-20 20zm180 0c-11.028 0-20-8.972-20-20s8.972-20 20-20 20 8.972 20 20-8.972 20-20 20zm80-88v58h-41.266c-4.452-17.233-20.13-30-38.734-30s-34.282 12.767-38.734 30h-102.532c-4.452-17.233-20.13-30-38.734-30s-34.282 12.767-38.734 30h-41.266v-58zm-270.367-249h200.733l-100.366 42.154zm-23.544 115.889 123.911-52.043 123.911 52.042-123.911 50.804zm123.911 72.419 99.249 40.692h-198.498z"/>
    <path d="m126 55c0 5.523 4.477 10 10 10h240c5.523 0 10-4.477 10-10s-4.477-10-10-10h-240c-5.523 0-10 4.477-10 10z"/>
    <path d="m376 90h-240c-5.523 0-10 4.477-10 10s4.477 10 10 10h240c5.523 0 10-4.477 10-10s-4.477-10-10-10z"/>
    <circle cx="256" cy="10" r="10"/>
  </g>
</svg>
